PathFileType	4	(X/Y/Z)	/Users/itak/Documents/Research/Walk-IL/dataset/trc/00178_00008.trc
DataRate	CameraRate	NumFrames	NumMarkers	Units	OrigDataRate	OrigDataStartFrame	OrigNumFrames
100.000000	100.000000	4	53	mm	100.000000	634	846
Frame#	Time	RPSI			LPSI			L3			STRN			T10			C7			CLAV			RBAK			LBAK			LSHO			LUPA			LAEL			LAOL			LWTS			LWPS			LFRA			LIFD			LHPS			LHTS			RSHO			RUPA			RAEL			RAOL			RWTS			RWPS			RFRA			RIFD			RHTS			RHPS			RBHD			LFHD			RFHD			LBHD			LHIP			RHIP			RASI			LASI			LKNE			LTHI			LANK			LTIP			LTOE			LMT1			LMT5			LHEE			RKNE			RTHI			RANK			RTIP			RTOE			RMT1			RMT5			RHEE			
		X1	Y1	Z1	X2	Y2	Z2	X3	Y3	Z3	X4	Y4	Z4	X5	Y5	Z5	X6	Y6	Z6	X7	Y7	Z7	X8	Y8	Z8	X9	Y9	Z9	X10	Y10	Z10	X11	Y11	Z11	X12	Y12	Z12	X13	Y13	Z13	X14	Y14	Z14	X15	Y15	Z15	X16	Y16	Z16	X17	Y17	Z17	X18	Y18	Z18	X19	Y19	Z19	X20	Y20	Z20	X21	Y21	Z21	X22	Y22	Z22	X23	Y23	Z23	X24	Y24	Z24	X25	Y25	Z25	X26	Y26	Z26	X27	Y27	Z27	X28	Y28	Z28	X29	Y29	Z29	X30	Y30	Z30	X31	Y31	Z31	X32	Y32	Z32	X33	Y33	Z33	X34	Y34	Z34	X35	Y35	Z35	X36	Y36	Z36	X37	Y37	Z37	X38	Y38	Z38	X39	Y39	Z39	X40	Y40	Z40	X41	Y41	Z41	X42	Y42	Z42	X43	Y43	Z43	X44	Y44	Z44	X45	Y45	Z45	X46	Y46	Z46	X47	Y47	Z47	X48	Y48	Z48	X49	Y49	Z49	X50	Y50	Z50	X51	Y51	Z51	X52	Y52	Z52	X53	Y53	Z53	

635	6.34	-844.9357299804688	1063.265625	822.5989990234375	-768.9319458007812	1059.685791015625	723.3739624023438	-811.755615234375	1098.242065429688	771.8901977539062	-612.4035034179688	1317.358520507812	920.4740600585938	-841.0829467773438	1247.892944335938	738.0801391601562	-795.5735473632812	1520.835205078125	758.8023071289062	-634.573974609375	1428.241333007812	889.915283203125	-906.260009765625	1343.713012695312	807.7476196289062	-737.170166015625	1496.150146484375	676.2771606445312	-628.4691162109375	1488.571411132812	662.813720703125	-605.9852294921875	1360.533081054688	581.2379150390625	-574.689208984375	1148.104614257812	559.77197265625	-654.4228515625	1129.029174804688	592.5701904296875	-481.7979736328125	919.583251953125	638.4046020507812	-525.015869140625	898.233154296875	558.352294921875	-546.3220825195312	1039.615356445312	551.4317626953125	-476.99658203125	739.7933959960938	658.6424560546875	-504.5775451660156	829.828125	570.567138671875	-456.5696105957031	841.8899536132812	623.9025268554688	-855.747314453125	1506.546142578125	937.1915893554688	-915.8431396484375	1443.788208007812	977.6802368164062	-979.9185180664062	1162.486083984375	1021.577392578125	-915.5503540039062	1147.850830078125	946.697265625	-857.8382568359375	948.2330322265625	1128.561889648438	-941.783203125	924.6884155273438	1107.1240234375	-972.1190795898438	1091.89306640625	1058.5615234375	-819.1699829101562	762.761962890625	1148.482299804688	-841.7400512695312	858.8276977539062	1164.505126953125	-916.20556640625	846.1452026367188	1133.874633789062	-768.2697143554688	1704.666748046875	868.9694213867188	-555.4356689453125	1711.768676757812	827.8213500976562	-611.5005493164062	1723.12890625	943.499755859375	-713.963134765625	1700.609619140625	742.65478515625	-615.5205688476562	998.8021240234375	687.3674926757812	-795.435302734375	1025.587036132812	1017.343627929688	-697.9791259765625	1054.496337890625	1018.59912109375	-550.4962158203125	1042.780151367188	806.6102294921875	-558.970947265625	492.0656127929688	761.7108154296875	-563.6184692382812	641.3004150390625	739.2921142578125	-882.458740234375	163.7195434570312	623.3189086914062	-709.2369995117188	322.7994689941406	686.6273193359375	-728.69189453125	49.17895126342773	725.3793334960938	-789.1990356445312	70.93030548095703	744.50439453125	-784.4383544921875	103.3416442871094	626.9924926757812	-952.972900390625	189.2140655517578	665.391357421875	-693.392822265625	530.091552734375	1056.157958984375	-726.064697265625	801.7302856445312	1070.90185546875	-761.63232421875	39.916259765625	1029.912353515625	-669.9287719726562	405.7455444335938	1054.917114257812	-550.5709838867188	45.59669876098633	1107.925903320312	-575.3477172851562	49.48743438720703	1043.177734375	-684.6123657226562	32.8196907043457	1116.391235351562	-772.543701171875	43.41042327880859	944.9089965820312	
636	6.350000000000001	-842.1276245117188	1064.157348632812	829.8158569335938	-767.7205810546875	1060.82421875	729.5763549804688	-809.5770874023438	1099.607666015625	779.1627807617188	-608.192626953125	1318.320922851562	924.2960205078125	-839.8153686523438	1249.380615234375	745.6192626953125	-793.592529296875	1522.077514648438	765.3740844726562	-630.6056518554688	1429.238891601562	894.1248779296875	-903.6395263671875	1345.086791992188	816.4154052734375	-736.479248046875	1497.226318359375	682.0750122070312	-627.97998046875	1489.466674804688	666.9323120117188	-606.7675170898438	1361.178100585938	585.3997802734375	-575.1458129882812	1148.56005859375	564.3206787109375	-653.8787841796875	1128.65576171875	598.5443725585938	-477.3352355957031	923.549560546875	646.6232299804688	-521.3914184570312	899.0781860351562	567.9463500976562	-545.3094482421875	1040.036865234375	557.6763916015625	-467.3338317871094	745.0693969726562	672.0648193359375	-499.1863708496094	831.4260864257812	581.7855224609375	-450.6132202148438	846.2832641601562	633.7386474609375	-850.8492431640625	1507.92431640625	944.7406005859375	-910.3258056640625	1445.425048828125	986.3914184570312	-974.181884765625	1164.461303710938	1033.11474609375	-911.1778564453125	1149.375	957.1552734375	-848.7382202148438	952.0626220703125	1139.8359375	-932.7706298828125	927.5614013671875	1120.11376953125	-965.328369140625	1094.104370117188	1070.5419921875	-808.0398559570312	767.1561889648438	1160.74609375	-831.2244873046875	863.1614379882812	1176.341552734375	-905.980712890625	849.5062255859375	1147.177001953125	-764.545166015625	1705.758666992188	874.94091796875	-552.3031616210938	1712.841186523438	830.9817504882812	-606.8125	1724.291381835938	947.39013671875	-711.9690551757812	1701.62060546875	747.9222412109375	-614.8159790039062	1000.1005859375	691.1666259765625	-789.8760986328125	1026.207641601562	1023.868774414062	-692.5226440429688	1055.223999023438	1023.633361816406	-548.083740234375	1043.854125976562	809.4459228515625	-555.1398315429688	493.5938415527344	766.1263427734375	-560.7415161132812	642.8114624023438	742.9171752929688	-872.7501220703125	153.1917877197266	642.558837890625	-703.0177001953125	318.7148132324219	697.9273071289062	-710.288330078125	48.89982604980469	741.7242431640625	-771.173828125	67.49343109130859	762.4462890625	-771.9801635742188	97.76683044433594	644.2236328125	-942.8208618164062	176.7649841308594	686.4304809570312	-691.79931640625	529.8860473632812	1058.530029296875	-721.3956298828125	801.8623046875	1075.2236328125	-761.5057373046875	40.05758666992188	1029.943359375	-668.93798828125	405.5015563964844	1056.483032226562	-550.4429931640625	45.54363250732422	1107.955444335938	-575.2479248046875	49.47208404541016	1043.180908203125	-684.5573120117188	32.8530158996582	1116.385864257812	-772.527099609375	43.60187911987305	944.9775390625	
637	6.36	-839.418212890625	1064.915649414062	836.8361206054688	-766.4860229492188	1061.8173828125	735.6799926757812	-807.3387451171875	1100.73486328125	786.302734375	-604.0343017578125	1319.1064453125	927.9100952148438	-838.524169921875	1250.710327148438	752.9519653320312	-791.5493774414062	1523.170776367188	771.7015991210938	-626.69189453125	1430.062866210938	898.1423950195312	-901.0008544921875	1346.286743164062	824.86474609375	-735.7817993164062	1498.140991210938	687.7103881835938	-627.5145263671875	1490.206909179688	670.8810424804688	-607.5269775390625	1361.606201171875	589.5101928710938	-575.6261596679688	1148.769165039062	569.0333862304688	-653.397216796875	1127.962158203125	604.6079711914062	-473.033447265625	927.3977661132812	654.8592529296875	-517.8505249023438	899.8713989257812	577.6452026367188	-544.3514404296875	1040.2744140625	564.085693359375	-457.9990844726562	750.4273071289062	685.3143310546875	-493.9087219238281	833.0349731445312	593.0496215820312	-444.8206481933594	850.6204833984375	643.5152587890625	-845.9659423828125	1509.093505859375	952.0506591796875	-904.8054809570312	1446.84033203125	994.8407592773438	-968.3995971679688	1166.24267578125	1044.36376953125	-906.7876586914062	1150.66845703125	967.3659057617188	-839.70263671875	955.7057495117188	1150.777954101562	-923.7659301757812	930.2794189453125	1132.750366210938	-958.5013427734375	1096.12353515625	1082.201049804688	-796.9688110351562	771.3902587890625	1172.660522460938	-820.7757568359375	867.3236694335938	1187.82470703125	-895.7662353515625	852.7304077148438	1160.131713867188	-760.8924560546875	1706.695434570312	880.704833984375	-549.2642211914062	1713.767822265625	833.9229736328125	-602.2136840820312	1725.31689453125	951.043701171875	-710.0438232421875	1702.4501953125	752.9917602539062	-614.2000732421875	1001.222839355469	694.868896484375	-784.4119873046875	1026.697143554688	1030.126953125	-687.1254272460938	1055.792846679688	1028.460083007812	-545.7328491210938	1044.76220703125	812.1491088867188	-552.0696411132812	494.9699401855469	770.1318969726562	-558.4215087890625	644.1066284179688	746.1746826171875	-862.38330078125	142.7381439208984	660.8707885742188	-697.0277709960938	314.7583618164062	708.4365234375	-691.5772705078125	49.05947875976562	756.2987060546875	-752.6480712890625	64.32152557373047	778.8630981445312	-759.0906982421875	92.44647216796875	660.1854858398438	-931.9622802734375	164.2841491699219	706.611572265625	-690.1217041015625	529.6669311523438	1060.911743164062	-716.7418823242188	801.926025390625	1079.379028320312	-761.3701171875	40.21719360351562	1029.963134765625	-667.8683471679688	405.2321472167969	1058.079467773438	-550.3131103515625	45.50003051757812	1107.987426757812	-575.1506958007812	49.44650268554688	1043.186279296875	-684.5092163085938	32.88894271850586	1116.377319335938	-772.5070190429688	43.80350875854492	945.0331420898438	
638	6.37	-836.7890625	1065.53125	843.6571044921875	-765.2601318359375	1062.6630859375	741.6397705078125	-805.1190795898438	1101.624267578125	793.2197875976562	-599.9241333007812	1319.733642578125	931.3230590820312	-837.2007446289062	1251.860961914062	760.0704345703125	-789.4473266601562	1524.113525390625	777.7865600585938	-622.8355102539062	1430.73095703125	901.964111328125	-898.3477783203125	1347.314697265625	833.079833984375	-735.0820922851562	1498.903442382812	693.18310546875	-627.0805053710938	1490.798461914062	674.6609497070312	-608.2715454101562	1361.823852539062	593.5574340820312	-576.1043090820312	1148.7451171875	573.90234375	-652.9597778320312	1127.0830078125	610.769287109375	-468.8956604003906	931.10693359375	663.103515625	-514.3945922851562	900.6172485351562	587.410888671875	-543.4243774414062	1040.336303710938	570.6491088867188	-449.0630187988281	755.7974853515625	698.3330078125	-488.7640686035156	834.6504516601562	604.315185546875	-439.1775207519531	854.875732421875	653.2174072265625	-841.1072998046875	1510.061889648438	959.1220092773438	-899.2936401367188	1448.04150390625	1003.026733398438	-962.5701293945312	1167.82958984375	1055.301025390625	-902.3812866210938	1151.7333984375	977.3048095703125	-830.7412109375	959.1463623046875	1161.365966796875	-914.790283203125	932.8375854492188	1145.005737304688	-951.6510620117188	1097.950561523438	1093.5185546875	-785.9873657226562	775.4493408203125	1184.229370117188	-810.419677734375	871.3057861328125	1198.9462890625	-885.6004638671875	855.8076782226562	1172.718383789062	-757.312744140625	1707.479858398438	886.2720336914062	-546.3175659179688	1714.556396484375	836.6569213867188	-597.7055053710938	1726.20556640625	954.4736328125	-708.180419921875	1703.109008789062	757.8757934570312	-613.643310546875	1002.183410644531	698.4874267578125	-779.0677490234375	1027.07373046875	1036.112060546875	-681.8062744140625	1056.224487304688	1033.0791015625	-543.4494018554688	1045.530883789062	814.7354125976562	-549.7622680664062	496.1912536621094	773.8068237304688	-556.6561889648438	645.1805419921875	749.1265258789062	-851.4177856445312	132.4642181396484	678.1005249023438	-691.2999267578125	310.9965515136719	718.1246337890625	-672.9232788085938	49.63789749145508	769.27197265625	-733.955810546875	61.50795745849609	793.810302734375	-745.8934936523438	87.38258361816406	674.9024658203125	-920.489013671875	151.9239807128906	725.6815185546875	-688.3099365234375	529.424072265625	1063.298950195312	-712.0855712890625	801.925537109375	1083.379516601562	-761.2252807617188	40.39776611328125	1029.9736328125	-666.6818237304688	404.9293518066406	1059.699951171875	-550.17919921875	45.46243667602539	1108.020629882812	-575.0474853515625	49.40605545043945	1043.192504882812	-684.4657592773438	32.93030548095703	1116.36376953125	-772.4785766601562	44.01601409912109	945.0770263671875	
